<svg version="1.1" xmlns="http://www.w3.org/2000/svg">
	<path id='prev' d="M 23 9 L 12 17 L 12 17 L 12 17 L 23 25 M 9 10 L 12 10 L 12 24 L 9 24" style="fill:white;"></path>
	<path id='next' d="M 9 9 L 20 17 L 20 17 L 20 17 L 9 26 M 20 10 L 23 10 L 23 25 L 20 25" style="fill:white;"></path>
	<path id='fullScreen_lt' d="M 10 16 l 0 0 l 0 -7 l 7 0 l 0 -2 L 8 7 l 0 6 l 0 3 Z z" style="fill:white;"></path>
	<path id='fullScreen_lb' d="M 8 19 l 2 0 l 0 7 l 7 0 l 0 2 L 8 28 l 0 -5 l 0 -2 Z z" style="fill:white;"></path>
	<path id='fullScreen_rt' d="M 29 16 l -2 0 l 0 -7 l -7 0 l 0 -2 L 29 7 l 0 6 l 0 3 Z z" style="fill:white;"></path>
	<path id='fullScreen_rb' d="M 29 19 l -2 0 l 0 7 l -7 0 l 0 2 L 29 28 l 0 -5 l 0 -3 Z z" style="fill:white;"></path>
	<path id='fullScreen_exit_lrb' d="M 11 12 L 17 18 L 24 25 L 26 23 Z z M 13 10 L 26 23 L 11 12" style="fill:white;"></path>
	<path id='fullScreen_exit_rlt' d="M 13 25 L 20 18 L 26 12 L 24 10 Z z M 11 23 L 24 10 L 13 25" style="fill:white;"></path>
	<path id='volume_base' d="M 10 16 v 4 h 5 l 7 5 V 9 L 15 14 H 10 z z z" style="fill:white;"></path>
	<path id='volume_up1' d="M 24 12 C 30 14 30 20 24 22 z z z" style="fill:white;"></path>
	<path id='volume_up2' d="M 24 11 v 0 c 6 0 7 3 7 6 s -1 6 -7 6 v 3 c 9 0 10 -6 10 -9 S 33 8 24 8 z" style="fill:white;"></path>
	<path id='volume_muted1' d="M 26 23 L 34 14 L 32 12 L 24 21" style="fill:white;"></path>
	<path id='volume_muted2' d="M 24 14 L 26 12 L 34 21 L 32 23 z z z" style="fill:white;"></path>
	<path id='replay' d="M 49 78 c 16 0 28 -12 28 -28 h 8 L 73 35 L 61 50 h 8 c -0 11 -9 20 -20 20 c -11 0 -20 -9 -20 -20 c 0 -11 9 -20 20 -20 l -0 -8 C 33 22 21 34 21 50 C 21 66 33 78 49 78 z" style="cursor: pointer;"></path>
	<path id='can_not_play' d="M 50 50 z z M 69 67 c 1 2 0 3 -1 4 c -2 1 -3 -0 -5 -2 c -3 -3 -7 -7 -13 -7 c -6 0 -10 4 -13 7 c -2 2 -3 3 -5 2 c -1 -1 -2 -2 -1 -4 c 4 -7 11 -11 19 -11 C 58 56 64 60 69 67 z M 30 39 c 0 -3 3 -6 6 -6 c 3 0 6 3 6 6 c 0 3 -3 6 -6 6 C 33 45 30 42 30 39 z M 58 39 c 0 -3 3 -6 6 -6 c 3 0 6 3 6 6 c 0 3 -3 6 -6 6 S 58 42 58 39 z"></path>
	<path id='can_not_play_mobile' d="M 38.75 39.472656 Z M 38.75 39.472656 Z M 53.476562 52.894531 C 54.25 54.472656 53.476562 55.261719 52.699219 56.050781 C 51.148438 56.84375 50.375 56.050781 48.824219 54.472656 C 46.5 52.105469 43.398438 48.949219 38.75 48.949219 C 34.101562 48.949219 31 52.105469 28.675781 54.472656 C 27.125 56.050781 26.351562 56.84375 24.800781 56.050781 C 24.023438 55.261719 23.25 54.472656 24.023438 52.894531 C 27.125 47.367188 32.550781 44.210938 38.75 44.210938 C 44.949219 44.210938 49.601562 47.367188 53.476562 52.894531 Z M 23.25 30.789062 C 23.25 28.421875 25.574219 26.050781 27.898438 26.050781 C 30.226562 26.050781 32.550781 28.421875 32.550781 30.789062 C 32.550781 33.15625 30.226562 35.527344 27.898438 35.527344 C 25.574219 35.527344 23.25 33.15625 23.25 30.789062 Z M 44.949219 30.789062 C 44.949219 28.421875 47.273438 26.050781 49.601562 26.050781 C 51.925781 26.050781 54.25 28.421875 54.25 30.789062 C 54.25 33.15625 51.925781 35.527344 49.601562 35.527344 C 47.273438 35.527344 44.949219 33.15625 44.949219 30.789062 Z M 44.949219 30.789062"></path>
	<path id='pip_enter' d="M 18 11 h -6 v 7 h 7 V 11 z m 2 -4 H 4 c -1.1 0 -2 0.9 -2 2 v 17 c 0 1.1 1 2 2 2 h 17 c 1 0 2 -1 2 -2 V 9 c 0 -1.1 -0.9 -2 -2 -2 z m 1 19 H 4 V 9 h 17 v 14 z" style="fill:white;"></path>
	<path id='pip_exit' d="M 18 11 h -12 v 13 h 13 V 11 z m 2 -4 H 4 c -1.1 0 -2 0.9 -2 2 v 17 c 0 1.1 1 2 2 2 h 17 c 1 0 2 -1 2 -2 V 9 c 0 -1.1 -0.9 -2 -2 -2 z m 1 19 H 4 V 9 h 17 v 14 z" style="fill:white;"></path>
	<path id='cc' d="M 22.78125 24.046875 L 4.21875 24.046875 C 1.890625 24.046875 0 22.15625 0 19.828125 L 0 7.171875 C 0 4.84375 1.890625 2.953125 4.21875 2.953125 L 22.78125 2.953125 C 25.109375 2.953125 27 4.84375 27 7.171875 L 27 14.554688 C 27 15.136719 26.527344 15.609375 25.945312 15.609375 C 25.363281 15.609375 24.890625 15.136719 24.890625 14.554688 L 24.890625 7.171875 C 24.890625 6.007812 23.945312 5.0625 22.78125 5.0625 L 4.21875 5.0625 C 3.054688 5.0625 2.109375 6.007812 2.109375 7.171875 L 2.109375 19.828125 C 2.109375 20.992188 3.054688 21.9375 4.21875 21.9375 L 22.78125 21.9375 C 23.945312 21.9375 24.890625 20.992188 24.890625 19.828125 C 24.890625 19.246094 25.363281 18.773438 25.945312 18.773438 C 26.527344 18.773438 27 19.246094 27 19.828125 C 27 22.15625 25.109375 24.046875 22.78125 24.046875 Z M 11.1875 15.1875 C 10.75 15.1875 10.363281 15.46875 10.214844 15.882812 C 9.941406 16.632812 9.230469 17.171875 8.378906 17.191406 C 7.253906 17.21875 6.328125 16.308594 6.328125 15.1875 L 6.328125 11.851562 C 6.328125 10.753906 7.191406 9.835938 8.285156 9.808594 C 9.167969 9.789062 9.929688 10.34375 10.214844 11.125 C 10.363281 11.535156 10.75 11.8125 11.183594 11.8125 L 11.238281 11.8125 C 11.945312 11.8125 12.449219 11.113281 12.210938 10.445312 C 11.644531 8.835938 10.097656 7.683594 8.292969 7.699219 C 6.050781 7.722656 4.21875 9.625 4.21875 11.863281 L 4.21875 15.136719 C 4.21875 17.398438 6.027344 19.277344 8.292969 19.300781 C 10.097656 19.316406 11.640625 18.167969 12.210938 16.558594 C 12.449219 15.890625 11.945312 15.1875 11.234375 15.1875 Z M 21.523438 15.1875 C 21.085938 15.1875 20.699219 15.46875 20.550781 15.882812 C 20.277344 16.632812 19.566406 17.171875 18.714844 17.191406 C 17.589844 17.21875 16.664062 16.308594 16.664062 15.1875 L 16.664062 11.851562 C 16.664062 10.753906 17.527344 9.835938 18.621094 9.808594 C 19.503906 9.789062 20.265625 10.34375 20.550781 11.125 C 20.699219 11.535156 21.085938 11.8125 21.519531 11.8125 L 21.574219 11.8125 C 22.28125 11.8125 22.785156 11.113281 22.546875 10.445312 C 21.980469 8.835938 20.433594 7.683594 18.628906 7.699219 C 16.386719 7.722656 14.554688 9.625 14.554688 11.863281 L 14.554688 15.136719 C 14.554688 17.398438 16.363281 19.277344 18.628906 19.300781 C 20.433594 19.316406 21.976562 18.167969 22.546875 16.558594 C 22.785156 15.890625 22.28125 15.1875 21.570312 15.1875 Z M 21.523438 15.1875" style="fill:white;"></path>
</svg>